<?xml version="1.0" encoding="UTF-8"?><svg id="_이어_2" xmlns="http://www.w3.org/2000/svg" viewBox="0 0 138.83 92.3"><defs><style>.cls-1{fill:#fff;}.cls-2{fill:#ea5550;}.cls-3{fill:#00a496;}.cls-4{fill:#f6bec8;}.cls-5{fill:#ef8575;}</style></defs><g id="_이어_1-2"><g><path class="cls-1" d="M138.36,63.98c.35,4.42,.82,9.05,.04,13.44-.75,4.19-2.79,7.91-7.38,6.59-4.29-1.24-3.42-8.23-4.3-11.73-.82-3.25-2.42-7.48-5.65-8.77-3.96-1.58-7.57,2.52-10.37,4.83-3.43,2.83-6.63-1.48-10.07-1.78-2.53-.22-4.8,1.99-5.7,4.34-.76,2.01-.43,4.37-1.66,6.19-1.68,2.5-5.81,2.16-7.57-.08-1.66-2.12-1.18-5.26-2.43-7.59-1.31-2.45-4.25-3.57-6.48-1.69-5.16,4.35-2.84,13.1-3.32,19.04-.33,4.06-2.78,6.74-6.93,5-3.69-1.55-2.96-8.8-2.82-12.04,.08-1.89,.1-3.81,.05-5.71-.07-3.09-.37-8.4-4.02-9.13-4.91-.98-7.96,5.64-10.91,8.43-1.86,1.76-4.33,3.21-6.51,1.08-2.48-2.42-3.66-6.05-5.61-8.91-1.62-2.37-5.14-4.64-7.72-2.61-1.9,1.5-2.32,4.49-4.45,5.81-2.68,1.67-6.54,.17-6.97-3.24-.19-1.51,.25-4.42-1.69-4.88-2.54-.59-3.27,3.55-3.56,5.38-.39,2.44-.44,5.71-2.85,6.99-2.77,1.47-7.16,.22-8.45-2.68-.69-1.56-1.16-3.02-1-5.57,.14-2.33,.16-3.69,.38-6.02l.1-1.42c0-11.01,30.8-19.38,68.62-19.38,15.18,0,30.61,1.19,45.4,5.01,5.12,1.32,10.28,2.95,14.98,5.51,2.85,1.54,6.14,3.63,7.54,6.84,1.08,2.49,1.22,4.65,1.25,7.49"/><path class="cls-3" d="M71.23,21.33c5.32-5.11,9.84-11.07,13.32-17.57-1.52-.64-3.05-1.28-4.57-1.93-1.76,7.05-.97,14.75,3.75,20.5,.86,1.04,2.65,.89,3.54,0,1.03-1.03,.86-2.49,0-3.54-1.63-1.99-2.64-4.62-3.03-7.45,.04,.27-.06-.62-.07-.73-.03-.37-.05-.75-.06-1.13-.02-.75-.01-1.51,.04-2.26,.09-1.41,.28-2.53,.66-4.07,.67-2.68-3.19-4.5-4.57-1.93-3.3,6.17-7.5,11.71-12.54,16.56-.97,.94-.94,2.59,0,3.54,.97,.97,2.56,.94,3.54,0h0Z"/><path class="cls-3" d="M82.67,10.11c.17-.02,.35-.05,.52-.07-.22,.03-.44,.06-.66,.09,1.52-.2,3.07-.35,4.6-.15-.22-.03-.44-.06-.66-.09,.63,.09,1.24,.24,1.84,.48l-.6-.25c.43,.18,.84,.41,1.22,.68,.5,.36,1.36,.41,1.93,.25,.58-.16,1.21-.61,1.49-1.15,.31-.58,.46-1.28,.25-1.93-.21-.65-.59-1.1-1.15-1.49-2.94-2.1-6.74-1.67-10.1-1.2-.57,.08-1.22,.67-1.49,1.15-.31,.54-.45,1.33-.25,1.93,.2,.6,.57,1.19,1.15,1.49,.64,.34,1.22,.35,1.93,.25h0Z"/><g><path class="cls-2" d="M13.26,24.5c0-.52,.09-.97,.26-1.35,.18-.38,.41-.71,.7-.98,.29-.27,.62-.47,.99-.61,.37-.13,.77-.2,1.18-.2s.81,.07,1.18,.2c.37,.13,.7,.34,.99,.61,.29,.27,.52,.6,.7,.98,.18,.38,.26,.83,.26,1.35v7.15l7.3-8.95c.31-.37,.66-.66,1.04-.87,.38-.21,.78-.34,1.18-.4,.4-.06,.81-.05,1.21,.03,.4,.08,.76,.23,1.07,.43,.35,.23,.64,.52,.87,.87,.23,.35,.37,.73,.43,1.13,.06,.4,.04,.81-.06,1.23-.1,.42-.31,.79-.62,1.12l-5.87,6.55,8.67,13.7h-7.21l-5.53-9.17-2.49,2.77v6.4h-6.28V24.5Z"/><path class="cls-5" d="M41.06,37.15c0,.72,.12,1.36,.36,1.91,.24,.55,.56,1,.96,1.37,.4,.36,.86,.64,1.38,.82,.52,.19,1.06,.28,1.62,.28,.72,0,1.35-.05,1.88-.16,.53-.1,1-.25,1.41-.43,.23-.1,.48-.23,.76-.37,.28-.14,.56-.24,.85-.28,.56-.1,1.07-.06,1.52,.12,.46,.19,.84,.54,1.15,1.06,.39,.64,.49,1.29,.29,1.93-.2,.64-.56,1.18-1.1,1.62-.87,.7-1.92,1.22-3.14,1.54-1.22,.32-2.43,.48-3.63,.48-1.35,0-2.66-.18-3.95-.53-1.28-.35-2.43-.92-3.43-1.69-1-.78-1.81-1.77-2.42-2.98-.61-1.21-.92-2.68-.92-4.4v-6.46c0-1.72,.3-3.18,.92-4.4,.61-1.21,1.42-2.21,2.42-2.98,1-.78,2.15-1.34,3.43-1.69,1.28-.35,2.6-.53,3.95-.53s2.6,.15,3.65,.43c1.04,.29,1.87,.65,2.47,1.09,.64,.46,1.09,1.02,1.34,1.69,.25,.67,.19,1.34-.19,2-.31,.54-.73,.92-1.24,1.15-.52,.23-1.05,.29-1.58,.19-.35-.06-.67-.16-.95-.29-.28-.13-.53-.25-.76-.36-.37-.14-.76-.25-1.17-.31-.4-.06-.93-.09-1.57-.09-.56,0-1.1,.09-1.62,.28-.52,.19-.98,.46-1.38,.82-.4,.36-.73,.82-.96,1.37-.24,.55-.36,1.19-.36,1.91v5.9Z"/><path class="cls-5" d="M55.47,30.81c0-1.78,.32-3.28,.96-4.49,.64-1.21,1.47-2.18,2.49-2.92,1.01-.74,2.14-1.26,3.37-1.59,1.23-.32,2.43-.48,3.59-.48s2.33,.16,3.56,.48c1.23,.32,2.36,.85,3.37,1.59,1.01,.74,1.85,1.71,2.5,2.92,.65,1.21,.98,2.71,.98,4.49v6.8c0,1.78-.33,3.28-.98,4.49-.65,1.21-1.49,2.18-2.5,2.92-1.01,.74-2.14,1.26-3.37,1.58-1.23,.32-2.42,.48-3.56,.48s-2.33-.16-3.56-.48c-1.23-.32-2.36-.85-3.37-1.58-1.01-.74-1.85-1.71-2.5-2.92-.65-1.21-.98-2.71-.98-4.49v-6.8Zm14.48-.19c0-.68-.12-1.27-.36-1.77-.24-.5-.55-.91-.95-1.24-.39-.33-.83-.57-1.3-.73-.48-.16-.96-.23-1.46-.23s-.98,.08-1.46,.23c-.48,.16-.91,.4-1.3,.73-.39,.33-.71,.75-.95,1.24-.24,.5-.36,1.09-.36,1.77v7.18c0,.62,.13,1.18,.39,1.68,.26,.5,.58,.92,.98,1.26,.39,.34,.83,.6,1.32,.78,.49,.18,.95,.26,1.38,.26s.9-.09,1.38-.26c.49-.18,.93-.43,1.32-.78,.39-.34,.72-.76,.98-1.26,.26-.5,.39-1.06,.39-1.68v-7.18Z"/><path class="cls-5" d="M78.9,30.81c0-1.78,.32-3.28,.96-4.49,.64-1.21,1.47-2.18,2.49-2.92,1.01-.74,2.14-1.26,3.37-1.59,1.23-.32,2.43-.48,3.59-.48s2.33,.16,3.56,.48c1.23,.32,2.36,.85,3.37,1.59,1.01,.74,1.85,1.71,2.5,2.92,.65,1.21,.98,2.71,.98,4.49v6.8c0,1.78-.33,3.28-.98,4.49-.65,1.21-1.49,2.18-2.5,2.92-1.01,.74-2.14,1.26-3.37,1.58-1.23,.32-2.42,.48-3.56,.48s-2.33-.16-3.56-.48c-1.23-.32-2.36-.85-3.37-1.58-1.01-.74-1.85-1.71-2.5-2.92-.65-1.21-.98-2.71-.98-4.49v-6.8Zm14.48-.19c0-.68-.12-1.27-.36-1.77-.24-.5-.55-.91-.95-1.24-.39-.33-.83-.57-1.3-.73-.48-.16-.96-.23-1.46-.23s-.98,.08-1.46,.23c-.48,.16-.91,.4-1.3,.73-.39,.33-.71,.75-.95,1.24-.24,.5-.36,1.09-.36,1.77v7.18c0,.62,.13,1.18,.39,1.68,.26,.5,.58,.92,.98,1.26,.39,.34,.83,.6,1.32,.78,.49,.18,.95,.26,1.38,.26s.9-.09,1.38-.26c.49-.18,.93-.43,1.32-.78,.39-.34,.72-.76,.98-1.26,.26-.5,.39-1.06,.39-1.68v-7.18Z"/><path class="cls-5" d="M102.63,24.5c0-.52,.09-.97,.26-1.35,.18-.38,.41-.71,.7-.98,.29-.27,.62-.47,.99-.61,.37-.13,.77-.2,1.18-.2s.81,.07,1.18,.2c.37,.13,.7,.34,.99,.61,.29,.27,.52,.6,.7,.98,.18,.38,.26,.83,.26,1.35v7.15l7.3-8.95c.31-.37,.66-.66,1.04-.87,.38-.21,.78-.34,1.18-.4,.4-.06,.81-.05,1.21,.03,.4,.08,.76,.23,1.07,.43,.35,.23,.64,.52,.87,.87,.23,.35,.37,.73,.43,1.13,.06,.4,.04,.81-.06,1.23-.1,.42-.31,.79-.62,1.12l-5.87,6.55,8.67,13.7h-7.21l-5.53-9.17-2.49,2.77v6.4h-6.28V24.5Z"/></g><path class="cls-1" d="M14.22,50.84c.03-.08,0,.06-.06,.11-.21,.21-.36,0,0,.1,.27,.08,.2,0,.6,.06,.38,.06,.77,.14,1.15,.2,2.01,.3,4.02,.3,6.05,.12,4.18-.36,8.27-1.32,12.4-2,4.03-.67,8.15-.8,12.22-.39,4.05,.4,7.97,1.58,12.01,2.08,4.23,.53,8.4-.13,12.58-.8,4-.64,8.02-1.04,12.07-1.07,4.03-.04,8.07,.22,12.05,.84,2.02,.32,4.02,.72,6,1.19,2.07,.49,4.21,1.05,6.35,.91,2.08-.14,4.02-.86,6.05-1.27,1.5-.3,3.01-.44,4.54-.43,3.01,.02,6.02,.72,8.08,3.03,2.15,2.41,5.67-1.14,3.54-3.54-4.52-5.06-12.29-5.15-18.42-3.68-1.95,.47-3.71,1.09-5.75,.82-2.11-.28-4.19-.96-6.28-1.37-4.31-.84-8.7-1.34-13.09-1.48-4.37-.13-8.74,.12-13.07,.71-4.31,.58-8.61,1.6-12.99,1.3-4.37-.29-8.61-1.68-12.96-2.17-4.45-.5-8.89-.32-13.31,.35-4.68,.71-9.29,1.96-14.04,2.1-1.09,.03-2.2,.01-3.28-.16-.83-.13-1.66-.33-2.5-.34-2.37-.03-3.9,1.35-4.76,3.46-.51,1.25,.55,2.75,1.75,3.08,1.43,.39,2.57-.49,3.08-1.75h0Z"/><g><path class="cls-4" d="M14.26,50.7c1.07,0,1.6,.52,1.6,1.57,0,.13-.07,.2-.2,.22l-.38,.03c-.16,.01-.24-.05-.25-.2-.03-.56-.28-.85-.75-.85-.53,0-.79,.37-.79,1.11v1.53c0,.68,.24,1.02,.71,1.02,.54,0,.82-.27,.86-.81,.01-.17,.1-.24,.26-.22l.35,.05c.13,.01,.2,.09,.2,.23,0,1.03-.56,1.54-1.68,1.54-1.02,0-1.53-.62-1.53-1.87v-1.52c0-1.22,.54-1.83,1.61-1.83Z"/><path class="cls-4" d="M20.62,50.75c.11,0,.17,.06,.17,.17v2.98c0,1.36-.56,2.03-1.68,2.03s-1.64-.68-1.64-2.03v-2.99c0-.11,.06-.17,.16-.17h.51c.11,0,.17,.05,.17,.16v2.99c0,.82,.27,1.23,.8,1.23s.84-.41,.84-1.23v-2.99c0-.11,.05-.17,.16-.17h.51Z"/><path class="cls-4" d="M23.27,52.23c0,.37,.36,.64,1.08,.8,.74,.18,1.11,.64,1.11,1.38,0,1-.5,1.5-1.5,1.5s-1.54-.49-1.55-1.46c0-.12,.06-.19,.2-.21l.38-.03c.07,0,.12,0,.17,.04,.04,.03,.07,.07,.07,.13,.02,.5,.26,.74,.71,.74s.68-.23,.68-.7c0-.41-.36-.7-1.08-.86-.74-.17-1.11-.62-1.1-1.37h0c0-1.01,.5-1.51,1.5-1.51s1.54,.49,1.55,1.47c0,.12-.06,.19-.18,.21l-.39,.03c-.15,0-.23-.04-.23-.15-.02-.52-.26-.78-.73-.78s-.68,.25-.68,.76Z"/><path class="cls-4" d="M28.84,51.5v4.17c0,.14-.08,.21-.23,.21h-.37c-.16,0-.24-.08-.24-.23v-4.15h-.98c-.13,0-.19-.06-.19-.19v-.37c0-.12,.07-.19,.2-.19h2.79c.13,0,.19,.07,.19,.2v.36c0,.13-.07,.19-.2,.19h-.97Z"/><path class="cls-4" d="M32.88,50.7c1.12,0,1.68,.86,1.68,2.59s-.56,2.64-1.68,2.65c-1.09,0-1.64-.89-1.64-2.65s.55-2.59,1.64-2.59Zm0,.8c-.54,0-.81,.59-.81,1.79s.27,1.84,.81,1.84,.84-.61,.85-1.84h0c0-1.19-.28-1.79-.85-1.79Z"/><path class="cls-4" d="M39.44,52.38l-.78,1.72c-.07,.11-.16,.17-.27,.17h-.31c-.06,0-.11-.02-.15-.05-.04-.03-.08-.08-.11-.13-.13-.29-.27-.58-.4-.86-.13-.28-.26-.57-.4-.86v3.28c0,.15-.08,.23-.23,.23h-.38c-.15,0-.23-.08-.23-.24v-4.66c0-.15,.09-.23,.26-.23h.4c.13,0,.22,.04,.28,.13l1.11,2.36,1.11-2.37c.04-.08,.13-.12,.25-.12h.42c.18,0,.26,.08,.26,.23v4.67c0,.16-.08,.23-.23,.23h-.38c-.15,0-.23-.07-.23-.21h0v-3.29Z"/><path class="cls-4" d="M45.93,50.7c1.07,0,1.6,.52,1.6,1.57,0,.13-.07,.2-.2,.22l-.38,.03c-.16,.01-.24-.05-.25-.2-.03-.56-.28-.85-.75-.85-.53,0-.79,.37-.79,1.11v1.53c0,.68,.24,1.02,.71,1.02,.54,0,.82-.27,.86-.81,.01-.17,.1-.24,.26-.22l.35,.05c.13,.01,.2,.09,.2,.23,0,1.03-.56,1.54-1.68,1.54-1.02,0-1.53-.62-1.53-1.87v-1.52c0-1.22,.54-1.83,1.61-1.83Z"/><path class="cls-4" d="M50.94,55.68c0-.18-.02-.34-.03-.5-.01-.16-.02-.31-.04-.47h-.98c-.03,.31-.05,.63-.06,.97,0,.14-.09,.21-.24,.21h-.44s-.08-.02-.11-.05c-.02-.04-.04-.08-.04-.13,.02-.38,.05-.76,.1-1.16,.05-.4,.11-.8,.19-1.21,.08-.4,.18-.81,.29-1.21,.11-.41,.24-.8,.39-1.19,.05-.12,.13-.17,.24-.17h.34c.11,0,.19,.05,.24,.16,.3,.82,.53,1.63,.69,2.42,.16,.79,.25,1.58,.28,2.37,0,.12-.06,.19-.16,.19h-.45c-.15,0-.22-.07-.22-.21Zm-.56-3.61h0c-.09,.27-.17,.57-.25,.9-.07,.33-.13,.68-.17,1.05h.85c-.04-.38-.1-.73-.17-1.06-.07-.33-.16-.63-.26-.91h0Z"/><path class="cls-4" d="M54.53,52.66c.29-.17,.49-.37,.62-.6,.15-.29,.28-.66,.38-1.11,.02-.13,.1-.2,.25-.2h.35c.16,0,.24,.07,.23,.21-.12,.97-.44,1.69-.95,2.16,.62,.52,.94,1.37,.97,2.57,0,.14-.08,.21-.24,.21h-.36c-.16,0-.24-.07-.24-.21h0c-.11-1.39-.56-2.09-1.34-2.11v2.1c0,.14-.08,.21-.23,.21h-.35c-.16,0-.24-.08-.24-.24v-4.66c0-.15,.08-.23,.23-.23h.36c.15,0,.23,.07,.23,.22v1.62c.11,.02,.22,.05,.32,.08Z"/><path class="cls-4" d="M60.76,55.32v.36c0,.14-.08,.21-.23,.21h-2.33c-.16,0-.25-.1-.25-.3v-4.5c0-.22,.1-.33,.31-.33h2.23c.18,0,.26,.08,.26,.23v.35c0,.14-.08,.22-.24,.22h-1.75v1.25h1.5c.16,0,.24,.08,.24,.24v.28c0,.18-.09,.26-.27,.26h-1.47v1.52h1.76c.15,0,.23,.07,.23,.22Z"/><path class="cls-4" d="M66.37,50.7c1.12,0,1.68,.86,1.68,2.59s-.56,2.64-1.68,2.65c-1.09,0-1.64-.89-1.64-2.65s.55-2.59,1.64-2.59Zm0,.8c-.54,0-.81,.59-.81,1.79s.27,1.84,.81,1.84,.84-.61,.85-1.84h0c0-1.19-.28-1.79-.85-1.79Z"/><path class="cls-4" d="M72.56,52.27c0,.62-.22,1.06-.66,1.31,.44,.26,.66,.76,.66,1.51v.56c0,.15-.08,.22-.25,.22h-.34c-.15,0-.22-.07-.22-.22v-.54c0-.84-.42-1.27-1.27-1.28v1.83c0,.14-.07,.21-.22,.21h-.36c-.16,0-.24-.08-.24-.23v-4.63c0-.18,.09-.27,.27-.27h1.18c.97,0,1.46,.51,1.46,1.52Zm-.83,.08c0-.52-.18-.78-.53-.78h-.73v1.46h.46c.53,0,.79-.23,.79-.68Z"/><path class="cls-4" d="M77.13,54.23c0,1.1-.6,1.66-1.79,1.66h-.81c-.22,0-.33-.1-.33-.3v-4.51c0-.21,.11-.32,.32-.32h.75c1.24,0,1.86,.55,1.86,1.66v1.82Zm-2.14,.89h.46c.59,0,.89-.23,.89-.68v-2.24c0-.46-.3-.69-.89-.69h-.45v3.6Z"/><path class="cls-4" d="M81.61,55.32v.36c0,.14-.08,.21-.23,.21h-2.33c-.16,0-.25-.1-.25-.3v-4.5c0-.22,.1-.33,.31-.33h2.23c.18,0,.26,.08,.26,.23v.35c0,.14-.08,.22-.24,.22h-1.75v1.25h1.5c.16,0,.24,.08,.24,.24v.28c0,.18-.09,.26-.27,.26h-1.47v1.52h1.76c.15,0,.23,.07,.23,.22Z"/><path class="cls-4" d="M86.1,52.27c0,.62-.22,1.06-.66,1.31,.44,.26,.66,.76,.66,1.51v.56c0,.15-.08,.22-.25,.22h-.34c-.15,0-.22-.07-.22-.22v-.54c0-.84-.42-1.27-1.27-1.28v1.83c0,.14-.07,.21-.22,.21h-.36c-.16,0-.24-.08-.24-.23v-4.63c0-.18,.09-.27,.27-.27h1.18c.97,0,1.46,.51,1.46,1.52Zm-.83,.08c0-.52-.18-.78-.53-.78h-.73v1.46h.46c.53,0,.79-.23,.79-.68Z"/><path class="cls-4" d="M92.92,52.27c0,1.04-.5,1.56-1.49,1.56h-.52v1.84c0,.14-.08,.21-.23,.21h-.36c-.15,0-.23-.08-.23-.23v-4.64c0-.17,.09-.26,.27-.26h1.05c1.01,0,1.51,.51,1.51,1.52Zm-.76,.08c0-.53-.21-.79-.64-.79h-.6v1.46h.63c.41,0,.61-.22,.61-.67Z"/><path class="cls-4" d="M94.69,55.88c-.16,0-.24-.08-.24-.24v-4.65c0-.16,.08-.24,.25-.24h.35c.15,0,.23,.08,.23,.23v4.16h1.43c.14,0,.21,.07,.21,.21v.34c0,.13-.07,.19-.21,.19h-2.02Z"/><path class="cls-4" d="M100.45,55.68c0-.18-.02-.34-.03-.5-.01-.16-.02-.31-.04-.47h-.98c-.03,.31-.05,.63-.06,.97,0,.14-.09,.21-.24,.21h-.44s-.08-.02-.11-.05c-.02-.04-.04-.08-.04-.13,.02-.38,.05-.76,.1-1.16,.05-.4,.11-.8,.19-1.21,.08-.4,.18-.81,.29-1.21,.11-.41,.24-.8,.39-1.19,.05-.12,.13-.17,.24-.17h.34c.11,0,.19,.05,.24,.16,.3,.82,.53,1.63,.69,2.42,.16,.79,.25,1.58,.28,2.37,0,.12-.06,.19-.16,.19h-.45c-.15,0-.22-.07-.22-.21Zm-.56-3.61h0c-.09,.27-.17,.57-.25,.9-.07,.33-.13,.68-.17,1.05h.85c-.04-.38-.1-.73-.17-1.06-.07-.33-.16-.63-.26-.91h0Z"/><path class="cls-4" d="M104.19,51.5v4.17c0,.14-.08,.21-.23,.21h-.37c-.16,0-.24-.08-.24-.23v-4.15h-.98c-.13,0-.19-.06-.19-.19v-.37c0-.12,.07-.19,.2-.19h2.79c.13,0,.19,.07,.19,.2v.36c0,.13-.07,.19-.2,.19h-.97Z"/><path class="cls-4" d="M107.69,55.67c0,.14-.08,.21-.23,.21h-.38c-.15,0-.23-.08-.23-.24v-4.61c0-.19,.1-.28,.3-.28h2.2c.18,0,.26,.08,.26,.23v.33c0,.14-.08,.22-.25,.22h-1.71v1.27h1.53c.16,0,.24,.08,.24,.24v.28c0,.18-.09,.26-.27,.26h-1.48v2.09Z"/><path class="cls-4" d="M112.67,50.7c1.12,0,1.68,.86,1.68,2.59s-.56,2.64-1.68,2.65c-1.09,0-1.64-.89-1.64-2.65s.55-2.59,1.64-2.59Zm0,.8c-.54,0-.81,.59-.81,1.79s.27,1.84,.81,1.84,.84-.61,.85-1.84h0c0-1.19-.28-1.79-.85-1.79Z"/><path class="cls-4" d="M118.87,52.27c0,.62-.22,1.06-.66,1.31,.44,.26,.66,.76,.66,1.51v.56c0,.15-.08,.22-.25,.22h-.34c-.15,0-.22-.07-.22-.22v-.54c0-.84-.42-1.27-1.27-1.28v1.83c0,.14-.07,.21-.22,.21h-.36c-.16,0-.24-.08-.24-.23v-4.63c0-.18,.09-.27,.27-.27h1.18c.97,0,1.46,.51,1.46,1.52Zm-.83,.08c0-.52-.18-.78-.53-.78h-.73v1.46h.46c.53,0,.79-.23,.79-.68Z"/><path class="cls-4" d="M123.79,52.38l-.78,1.72c-.07,.11-.16,.17-.27,.17h-.31c-.06,0-.11-.02-.15-.05-.04-.03-.08-.08-.11-.13-.13-.29-.27-.58-.4-.86-.13-.28-.26-.57-.4-.86v3.28c0,.15-.08,.23-.23,.23h-.38c-.15,0-.23-.08-.23-.24v-4.66c0-.15,.09-.23,.26-.23h.4c.13,0,.22,.04,.28,.13l1.11,2.36,1.11-2.37c.04-.08,.13-.12,.25-.12h.42c.18,0,.26,.08,.26,.23v4.67c0,.16-.08,.23-.23,.23h-.38c-.15,0-.23-.07-.23-.21h0v-3.29Z"/></g></g></g></svg>