<svg xmlns="http://www.w3.org/2000/svg" xmlns:xlink="http://www.w3.org/1999/xlink" width="18" height="18" viewBox="0 0 18 18">
  <defs>
    <style>
      .cls-1 {
        fill: none;
      }

      .cls-2 {
        clip-path: url(#clip-path);
      }

      .cls-3 {
        fill: #333;
      }
    </style>
    <clipPath id="clip-path">
      <rect class="cls-1" width="18" height="18"/>
    </clipPath>
  </defs>
  <g id="구성_요소_1" data-name="구성 요소 1" class="cls-2">
    <rect id="사각형_176" data-name="사각형 176" class="cls-1" width="18" height="18"/>
    <path id="패스_99" data-name="패스 99" class="cls-3" d="M17.9,16.324l-3.715-3.715a7.708,7.708,0,0,0,1.576-4.728A7.832,7.832,0,0,0,7.881,0,7.832,7.832,0,0,0,0,7.881a7.832,7.832,0,0,0,7.881,7.881,7.708,7.708,0,0,0,4.728-1.576L16.324,17.9ZM2.252,7.881A5.574,5.574,0,0,1,7.881,2.252a5.574,5.574,0,0,1,5.629,5.629,5.574,5.574,0,0,1-5.629,5.629A5.574,5.574,0,0,1,2.252,7.881Z"/>
  </g>
</svg>
